# xmcd CD database file generated by Grip 3.2.0
# 
# Track frame offsets:
#       150
#       13327
#       25527
#       46452
#       67002
#       82676
#       102289
#       119452
#       134637
#       146715
#       161885
#       182802
# 
# Disc length: 2617 seconds
# 
# Revision: 1
# Processed by: cddbd v1.5.2PL0 Copyright (c) Steve Scherf et al.
# Submitted via: Grip 3.2.0
# 
DISCID=a90a370c
DTITLE=Johnny Cash - American V
DYEAR=2006
DGENRE=Country
TTITLE0=Help Me
TTITLE1=God's Gonna Cut You Down
TTITLE2=Like The 309 (the last song Johnny wrote and recorded)
TTITLE3=If You Could Read My Mind
TTITLE4=Further On Up the Road
TTITLE5=The Evening Train
TTITLE6=I Came To Believe
TTITLE7=Love's Been Good To Me
TTITLE8=A Legend In My Time
TTITLE9=Rose Of My Heart
TTITLE10=Four Strong Winds
TTITLE11=I'm Free From The Chain Gang Now
EXTD=YEAR: 2006
EXTT0=
EXTT1=
EXTT2=
EXTT3=
EXTT4=
EXTT5=
EXTT6=
EXTT7=
EXTT8=
EXTT9=
EXTT10=
EXTT11=
PLAYORDER=
